<svg width="22" height="22" viewBox="0 0 22 22" fill="none" xmlns="http://www.w3.org/2000/svg">
<g clip-path="url(#clip0_1288_1198)">
<path d="M10.9458 22C4.87323 21.9701 -0.0425659 16.9975 3.06155e-05 10.9272C0.0433745 4.86648 4.99653 -0.0298782 11.0542 1.4074e-05C17.1156 0.0306537 22.0314 4.98456 22.0015 11.0348C21.9716 17.1246 17.0259 22.0292 10.9466 22H10.9458ZM16.0485 7.60238C16.0709 6.87973 15.8101 6.63312 15.2713 6.68244C14.9589 6.71084 14.6637 6.81247 14.3775 6.93204C12.362 7.77501 10.3473 8.61797 8.33476 9.46766C7.12337 9.97957 5.91423 10.4967 4.71031 11.0258C4.48911 11.1229 4.25072 11.253 4.27314 11.5668C4.29556 11.8747 4.56758 11.9233 4.77533 11.9936C5.37467 12.1961 5.97849 12.3919 6.59278 12.5413C7.09946 12.6654 7.61136 12.6198 8.06274 12.3171C9.56931 11.3068 11.0707 10.2897 12.578 9.28008C12.7304 9.17845 12.9105 8.9438 13.0899 9.15304C13.2745 9.36752 13.0084 9.50278 12.8799 9.62982C11.8351 10.6611 10.7807 11.6827 9.73596 12.7132C9.26814 13.1751 9.31373 13.601 9.85702 13.9717C10.1545 14.1742 10.4601 14.3655 10.7598 14.5665C11.5542 15.0994 12.3358 15.6524 13.1444 16.1628C14.024 16.718 14.4455 16.5521 14.7474 15.5851C14.7765 15.491 14.8027 15.3946 14.8236 15.2982C15.1315 13.9014 15.3243 12.4845 15.5463 11.0729C15.7376 9.85701 15.899 8.63665 16.047 7.60238H16.0485Z" fill="#333333"/>
</g>
<defs>
<clipPath id="clip0_1288_1198">
<rect width="22.0015" height="22" fill="white"/>
</clipPath>
</defs>
</svg>
